<svg width="108" height="40" viewBox="0 0 108 40" fill="none" xmlns="http://www.w3.org/2000/svg">
<rect x="0.5" y="0.5" width="107" height="39" rx="5.5" fill="white"/>
<rect x="0.5" y="0.5" width="107" height="39" rx="5.5" stroke="#CBD5E1"/>
<rect x="5" y="4" width="31" height="32" rx="6" fill="white"/>
<path d="M21.8423 14.8182V25H20.3011V16.3594H20.2415L17.8054 17.9503V16.4787L20.3459 14.8182H21.8423Z" fill="white"/>
<rect x="36.5" y="4.5" width="32" height="31" rx="5.5" fill="#F1F5F9"/>
<rect x="36.5" y="4.5" width="32" height="31" rx="5.5" stroke="#F25037"/>
<path d="M48.9794 25V23.8864L52.4247 20.3168C52.7926 19.929 53.0959 19.5893 53.3345 19.2976C53.5765 19.0026 53.7571 18.7225 53.8764 18.4574C53.9957 18.1922 54.0554 17.9105 54.0554 17.6122C54.0554 17.2741 53.9759 16.9825 53.8168 16.7372C53.6577 16.4886 53.4406 16.2981 53.1655 16.1655C52.8904 16.0296 52.5805 15.9616 52.2358 15.9616C51.8712 15.9616 51.553 16.0362 51.2812 16.1854C51.0095 16.3345 50.8007 16.545 50.6548 16.8168C50.509 17.0885 50.4361 17.4067 50.4361 17.7713H48.9695C48.9695 17.1515 49.112 16.6096 49.397 16.1456C49.6821 15.6816 50.0732 15.322 50.5703 15.0668C51.0675 14.8082 51.6326 14.679 52.2656 14.679C52.9053 14.679 53.4688 14.8066 53.956 15.0618C54.4465 15.3137 54.8293 15.6584 55.1044 16.0959C55.3795 16.5301 55.517 17.0206 55.517 17.5675C55.517 17.9453 55.4458 18.3149 55.3033 18.6761C55.1641 19.0374 54.9205 19.4401 54.5724 19.8842C54.2244 20.325 53.7405 20.8603 53.1207 21.4901L51.0973 23.608V23.6825H55.6811V25H48.9794Z" fill="#F25037"/>
<rect width="34" height="32" transform="translate(69 4)" fill="white"/>
<path d="M85.5241 25.1392C84.8414 25.1392 84.2315 25.0215 83.6946 24.7862C83.161 24.5509 82.7384 24.2244 82.4268 23.8068C82.1186 23.3859 81.9529 22.8987 81.9297 22.3452H83.4908C83.5107 22.6468 83.6117 22.9086 83.794 23.1307C83.9796 23.3494 84.2216 23.5185 84.5199 23.6378C84.8182 23.7571 85.1496 23.8168 85.5142 23.8168C85.9152 23.8168 86.2699 23.7472 86.5781 23.608C86.8897 23.4687 87.1333 23.2749 87.3089 23.0263C87.4846 22.7744 87.5724 22.4844 87.5724 22.1562C87.5724 21.8149 87.4846 21.5149 87.3089 21.2564C87.1366 20.9946 86.883 20.7891 86.5483 20.6399C86.2169 20.4908 85.8158 20.4162 85.3452 20.4162H84.4851V19.1634H85.3452C85.723 19.1634 86.0545 19.0954 86.3395 18.9595C86.6278 18.8236 86.8532 18.6347 87.0156 18.3928C87.178 18.1475 87.2592 17.8608 87.2592 17.5327C87.2592 17.2178 87.188 16.9444 87.0455 16.7124C86.9063 16.477 86.7074 16.2931 86.4489 16.1605C86.1937 16.0279 85.892 15.9616 85.544 15.9616C85.2126 15.9616 84.9027 16.023 84.6143 16.1456C84.3293 16.2649 84.0973 16.4373 83.9183 16.6626C83.7393 16.8847 83.6432 17.1515 83.63 17.4631H82.1435C82.16 16.9129 82.3224 16.429 82.6307 16.0114C82.9422 15.5937 83.3532 15.2673 83.8636 15.032C84.3741 14.7966 84.9408 14.679 85.5639 14.679C86.2169 14.679 86.7803 14.8066 87.2543 15.0618C87.7315 15.3137 88.0994 15.6501 88.358 16.071C88.6198 16.492 88.7491 16.9527 88.7457 17.4531C88.7491 18.0232 88.59 18.5071 88.2685 18.9048C87.9503 19.3026 87.526 19.5694 86.9957 19.7053V19.7848C87.6719 19.8875 88.1955 20.156 88.5668 20.5902C88.9413 21.0244 89.1269 21.563 89.1236 22.206C89.1269 22.7661 88.9711 23.2682 88.6562 23.7124C88.3447 24.1565 87.9188 24.5062 87.3786 24.7614C86.8383 25.0133 86.2202 25.1392 85.5241 25.1392Z" fill="#94A3B8"/>
<path d="M28 14L17 25L12 20" stroke="#8CD100" stroke-width="2" stroke-linecap="round" stroke-linejoin="round"/>
</svg>
